<?xml version="1.0" encoding="UTF-8"?>
<svg version="1.1" viewBox="0 0 192 192" xml:space="preserve" xmlns="http://www.w3.org/2000/svg">
    <desc>
        Created with Fabric.js 5.4.0
    </desc>
    
    
    <g transform="matrix(1.2365 0 0 1.2365 74.271 97.981)">
        
            
                <rect x="-80.516" y="-87.01" width="161.03" height="174.02" rx="0" ry="0" fill="#fff" fill-opacity="0" stroke="#fff" stroke-opacity="0"/>
            
            <g transform="translate(-.54 -5.25)">
                <path transform="translate(-95.97,-90.85)" d="m85.95 145.52q-5.23 0-10.01-1.39-4.77-1.38-8.85-4t-7.32-6.24q-3.23-3.62-5.54-7.93l10.47-10.93q4.47 6 7.78 9.08t6.46 4.16q3.16 1.08 7.01 1.08 5.55 0 9.7-2.54 4.16-2.54 6.47-7.01 2.31-4.46 2.31-10.16v-58.06h-19.71v-15.4h52.98v15.4h-16.64v59.6q0 7.39-2.54 13.63-2.54 6.23-7.24 10.85-4.69 4.62-11.08 7.24t-14.25 2.62z" fill="#35495e" stroke="#fff" stroke-width="0" paint-order="stroke"/>
            </g>
        
    </g>
<path d="m156.39 157.54h-16.394v-17.358h16.587z" fill="#42b883" stroke-width="2"/></svg>
