<?xml version="1.0" encoding="UTF-8"?>
<svg data-id="lg_0xRKPeGE6ogxAJkWgj" data-version="1" version="1.1" viewBox="0 0 545 104" xml:space="preserve" xmlns="http://www.w3.org/2000/svg"><g stroke-width=".96435" data-padding="20"><rect x=".77148" y="1.9" width="342.73" height="100.29" rx="0" ry="0" fill="none"/><path d="m3.4717 96.888-3.4717-6.9433q5.111 0 7.7148-2.7002 2.6037-2.7002 2.5073-7.9077v-46.482h9.1613v48.7q0 4.5324-1.9287 8.0041t-5.5932 5.4004q-3.6645 1.9287-8.3898 1.9287m11.572-74.255q-2.893 0-4.5324-1.543-1.543-1.543-1.543-4.3396 0-2.5073 1.6394-4.1467t4.436-1.543q2.7966 0.09643 4.5324 1.4465 1.6394 1.543 1.6394 4.2431 0 2.6037-1.6394 4.2431-1.6394 1.543-4.5324 1.543m23.916 56.897h-9.2578v-46.578h9.2578v9.9328l-1.7358 1.0608q0.67505-2.3144 2.3144-4.436 1.6394-2.1216 3.8574-3.761t4.8218-2.6037 5.3039-0.96435q4.0503 0 7.0398 1.3501 2.9895 1.3501 5.0146 3.9538 2.0251 2.6037 2.7966 6.654l-1.4465-0.38574 0.67505-1.4465q0.96435-2.1216 2.7002-3.8574 1.7358-1.9287 3.8574-3.2788 2.1216-1.3501 4.8218-2.218 2.4109-0.77148 4.8218-0.77148 5.2075 0 8.6792 2.1216t5.111 6.4611q1.6394 4.3396 1.7358 10.801v27.966h-9.2578v-27.388q0-5.979-2.218-8.6792-2.218-2.7002-7.0398-2.893-2.5073 0-4.6289 0.86792-2.218 0.86792-3.8574 2.3144-1.543 1.543-2.4109 3.5681-0.86792 2.0251-0.96435 4.3396v27.966h-9.1613v-27.773q0-5.4968-2.4109-8.3898-2.3144-2.893-6.7504-2.893-2.5073 0-4.6289 0.77148t-3.6645 2.3144-2.5073 3.4717-0.96435 4.2431zm85.441 0.96435q-5.7861 0-10.608-2.1216-4.6289-2.0251-7.7148-5.979l6.1718-5.4004q2.7002 3.1824 5.7861 4.5324t7.2326 1.3501q1.543 0 2.893-0.38574 1.4465-0.38574 2.4109-1.1572 0.96435-0.86792 1.543-1.9287t0.57861-2.4109q0-2.3144-1.6394-3.8574-0.96435-0.57861-2.893-1.2537t-4.8218-1.543q-5.2075-1.3501-8.4863-3.0859-3.2788-1.6394-5.0146-3.8574-1.3501-1.6394-1.9287-3.6645t-0.67504-4.3396q0-3.8574 2.218-6.9433 2.218-2.9895 5.979-4.8218 3.8574-1.6394 8.4863-1.6394 3.2788 0 6.5576 0.96435t5.979 2.5073 4.5324 3.9538l-5.2075 5.7861q-1.6394-1.6394-3.6645-2.893-2.0251-1.2537-4.0503-2.0251-2.0251-0.77148-3.6645-0.77148-1.9287 0-3.3752 0.38574-1.543 0.38574-2.6037 0.96435-1.0608 0.57861-1.543 1.9287-0.48218 1.3501-0.48218 2.3144 0 1.1572 0.57861 2.218t1.3501 1.7358q0.96435 0.67504 2.893 1.4465t5.0146 1.543q4.436 1.1572 7.3291 2.5073t4.5324 3.1824q1.8323 1.6394 2.5073 3.8574 0.67505 2.218 0.67505 5.0146 0 3.9538-2.218 7.1362-2.3144 3.1824-6.0754 4.8218-3.8574 1.9287-8.5827 1.9287m29.413-0.96435v-51.786q0-4.0503 1.7358-7.1362t4.8218-4.8218 7.2326-1.8323q2.893 0 5.4004 1.0608t3.9538 2.893l-3.0859 6.9433q-1.1572-0.96435-2.5073-1.7358-1.4465-0.67504-2.6038-0.67504-1.9287 0-3.1824 0.57861-1.2537 0.57861-1.9287 1.8323-0.57861 1.1572-0.57861 2.893v51.786zm20.251-37.32h-27.677v-8.4863h27.677zm17.551 37.32h-9.1613v-46.578h9.1613zm-4.7253-56.897q-2.893 0-4.5324-1.4465-1.543-1.543-1.543-4.2431 0-2.6037 1.6394-4.2431 1.6394-1.543 4.436-1.543 2.893 0 4.5324 1.4465 1.6394 1.543 1.6394 4.3396 0 2.5073-1.6394 4.1467-1.6394 1.6394-4.5324 1.543m25.362 56.897h-9.1613v-65.576h9.1613zm20.926 0h-9.0649v-46.578h9.0649zm-4.6289-56.897q-2.893 0-4.5324-1.4465-1.6394-1.543-1.6394-4.2431 0-2.6037 1.6394-4.2431 1.6394-1.543 4.5324-1.543t4.5324 1.4465q1.543 1.543 1.543 4.3396 0 2.5073-1.6394 4.1467-1.6394 1.6394-4.436 1.543m25.266 76.377h-9.2578v-66.058h9.2578v10.608l-1.4465-0.77148q0.57861-2.7002 2.9895-5.1111 2.5073-2.4109 6.0754-3.9538 3.6645-1.543 7.4255-1.543 6.3648 0 11.186 3.0859 4.8218 3.0859 7.7148 8.4863 2.8931 5.4004 2.8931 12.44t-2.8931 12.344q-2.893 5.3039-7.6184 8.6792-4.8217 3.0859-10.994 3.0859-4.0503 0-7.9077-1.6394t-6.4611-4.1467q-2.6038-2.5073-3.2788-5.4004l2.3144-1.2537zm13.79-27.098q4.1467 0 7.3291-2.0251 3.1823-2.0251 5.0146-5.5932 1.8322-3.5681 1.9287-8.1005 0.096-4.5324-1.9287-8.0041-2.0252-3.4717-4.9182-5.5932-3.1824-1.9287-7.4255-1.9287-4.1467 0-7.3291 1.9287-3.1824 1.9287-5.0146 5.4968-1.8323 3.5681-1.9287 8.1005-0.0964 4.5324 1.9287 8.1005 2.0251 3.5681 5.0146 5.5932 2.9895 2.0251 7.3291 1.9287m52.075 8.6792q-7.2326 0-12.826-3.0859-5.4968-3.0859-8.6791-8.3898-3.0859-5.4004-3.0859-12.247 0-5.4968 1.7358-10.029t4.9182-7.9077q3.1823-3.3752 7.5219-5.1111t9.6435-1.8323q4.436 0 8.3899 1.7358 3.9538 1.7358 6.7504 4.8218t4.436 7.0398 1.4465 9.0649v3.8574h-38.092l-2.1215-7.2326h32.209l-1.2536 1.4465v-2.1216q-0.2893-2.893-1.9287-5.2075-1.7358-2.3144-4.3396-3.6645-2.6037-1.3501-5.5932-1.3501-4.8218 0-8.1006 1.9287-3.2787 1.7358-4.9181 5.2075-1.7359 3.5681-1.7359 8.6792 0 4.8218 2.1216 8.4863 1.9287 3.5681 5.7861 5.5932 3.6645 1.9287 8.5827 1.9287 3.4717 0 6.3647-1.1572 2.9895-1.1572 6.4612-4.1467l4.6288 6.4611q-2.1215 2.1216-5.2074 3.6645-3.086 1.6394-6.4612 2.6037-3.4716 0.96435-6.7504 0.96435" fill="#fff"/><rect x="354.11" y="2.9608" width="186.79" height="95.856" rx="0" ry="0" fill="none"/><path d="m366.26 77.119h-8.197v-8.6792h8.2934zm28.352 0.57861q-6.3647 0-11.09-2.893t-7.2327-7.9077q-2.5073-5.0146-2.6037-11.09-0.096-6.0754 2.6037-11.09 2.6038-4.9182 7.2327-7.9077 4.7253-2.893 11.09-2.893 7.5219 0 12.826 3.8574 5.304 3.8574 7.1362 10.126h-6.8468q-1.4466-3.6645-4.6289-5.8825-3.1824-2.3144-7.7148-2.3144-4.5325 0-8.1006 2.218t-5.4003 5.7861q-1.8323 3.5681-1.8323 8.1005 0 4.3396 1.9287 8.0041 1.8323 3.761 5.3039 5.8825 3.4717 2.218 8.1006 2.218 4.5324 0 7.7148-2.218 3.1823-2.3144 4.6289-5.979h6.8468q-1.9287 6.1718-7.1362 10.126-5.2074 3.9538-12.826 3.8574m46.289 0q-6.4612 0-11.186-2.893t-7.329-8.0041q-2.6038-5.1111-2.5073-10.994 0.096-5.8825 2.5073-11.09 2.4108-5.2075 7.329-7.9077t11.186-2.893q6.5576 0 11.283 2.893t7.2326 7.9077 2.5073 11.09-2.5073 10.994-7.2326 8.0041q-4.8218 2.893-11.283 2.893m0-5.7861q4.8217 0 8.0041-2.218t5.0146-5.7861q1.8323-3.5681 1.6394-8.1005t-1.6394-8.1005q-1.7358-3.5681-5.0146-5.7861t-8.0041-2.218-8.0041 2.218-5.0146 5.7861q-1.7359 3.5681-1.6394 8.1005 0 4.3396 1.6394 8.0041t5.0146 5.8825 8.0041 2.218m35.777 5.1111h-6.3647v-42.335h6.3647v6.4611q1.4465-2.5073 4.6289-4.8218 3.1823-2.3144 8.2934-2.3144 4.2431 0 7.9076 2.218 3.6646 2.218 5.5933 6.3647 0.8679-1.4465 2.7001-3.4717 1.8323-2.0251 4.8218-3.5681 2.893-1.543 7.0397-1.543 4.1468 0 7.7148 2.1216 3.5681 2.1216 5.7861 6.0754 2.2181 3.9538 2.2181 9.2578v25.652h-6.3648v-25.555q0-5.3039-2.9894-8.6792-2.9895-3.1824-7.522-3.1824-4.6288 0-8.0041 3.0859-3.3752 3.0859-3.4716 8.872v25.362h-6.3647v-25.459q0-5.3039-2.9895-8.6792-2.9895-3.1824-7.522-3.1824-4.6288 0-8.0041 3.0859-3.3752 3.0859-3.4716 8.872z" fill="#42b883"/></g></svg>
